<?xml version="1.0" encoding="UTF-8"?>
<!DOCTYPE svg PUBLIC "-//W3C//DTD SVG 1.1//EN" "http://www.w3.org/Graphics/SVG/1.1/DTD/svg11.dtd">
<svg xmlns="http://www.w3.org/2000/svg" version="1.1" width="100px" height="100px" style="shape-rendering:geometricPrecision; text-rendering:geometricPrecision; image-rendering:optimizeQuality; fill-rule:evenodd; clip-rule:evenodd" xmlns:xlink="http://www.w3.org/1999/xlink">
<g><path style="opacity:0.999" fill="#101010" d="M 65.5,16.5 C 66.2905,17.4013 67.2905,18.0679 68.5,18.5C 77.6448,26.1799 77.6448,34.0133 68.5,42C 66.913,42.8624 65.2464,43.5291 63.5,44C 57.5,44.6667 51.5,44.6667 45.5,44C 45.0426,43.586 44.7093,43.086 44.5,42.5C 45.0853,35.8044 45.9186,29.1378 47,22.5C 51.8699,15.959 58.0366,13.959 65.5,16.5 Z"/></g>
<g><path style="opacity:0.58" fill="#bebebe" d="M 65.5,16.5 C 67.1788,16.2852 68.1788,16.9519 68.5,18.5C 67.2905,18.0679 66.2905,17.4013 65.5,16.5 Z"/></g>
<g><path style="opacity:0.027" fill="#dddddd" d="M 25.5,26.5 C 26.4486,25.8476 27.6153,25.5143 29,25.5C 31.2206,25.3932 33.0539,26.0598 34.5,27.5C 31.5448,26.8413 28.5448,26.5079 25.5,26.5 Z"/></g>
<g><path style="opacity:1" fill="#121212" d="M 25.5,26.5 C 28.5448,26.5079 31.5448,26.8413 34.5,27.5C 35.4916,27.3284 36.1583,27.6618 36.5,28.5C 37.5,30.1667 38.8333,31.5 40.5,32.5C 43.4009,39.5162 44.2342,46.8496 43,54.5C 40.0864,55.1447 37.0864,55.478 34,55.5C 29.2416,55.6343 24.7416,54.9676 20.5,53.5C 19.1667,51.5 17.5,49.8333 15.5,48.5C 13.9532,46.1934 13.2865,43.5267 13.5,40.5C 13.5046,38.3035 13.838,36.3035 14.5,34.5C 16.2624,33.7377 17.2624,32.4044 17.5,30.5C 19.5792,28.127 22.2459,26.7936 25.5,26.5 Z"/></g>
<g><path style="opacity:0.063" fill="#d5d5d5" d="M 36.5,28.5 C 38.8333,28.8333 40.1667,30.1667 40.5,32.5C 38.8333,31.5 37.5,30.1667 36.5,28.5 Z"/></g>
<g><path style="opacity:0.91" fill="#6e6e6e" d="M 17.5,30.5 C 17.2624,32.4044 16.2624,33.7377 14.5,34.5C 14.7376,32.5956 15.7376,31.2623 17.5,30.5 Z"/></g>
<g><path style="opacity:1" fill="#141414" d="M 79.5,48.5 C 80.1667,49.8333 81.1667,50.8333 82.5,51.5C 82.427,53.0269 83.0937,54.0269 84.5,54.5C 88.1711,66.3865 83.6711,73.3865 71,75.5C 69.4672,75.2272 67.9672,74.8938 66.5,74.5C 65.4863,73.3263 64.153,72.6596 62.5,72.5C 61.5,72.1667 60.8333,71.5 60.5,70.5C 60.1667,69.5 59.5,68.8333 58.5,68.5C 55.1139,61.4307 54.7805,54.0973 57.5,46.5C 63.1138,45.3791 68.7805,45.2124 74.5,46C 76.4913,46.3736 78.158,47.207 79.5,48.5 Z"/></g>
<g><path style="opacity:0.063" fill="#c5c5c5" d="M 79.5,48.5 C 81.5,48.5 82.5,49.5 82.5,51.5C 81.1667,50.8333 80.1667,49.8333 79.5,48.5 Z"/></g>
<g><path style="opacity:0.027" fill="#c4c4c4" d="M 15.5,48.5 C 17.5,49.8333 19.1667,51.5 20.5,53.5C 17.8333,52.8333 16.1667,51.1667 15.5,48.5 Z"/></g>
<g><path style="opacity:1" fill="#6c6c6c" d="M 82.5,51.5 C 83.9063,51.9731 84.573,52.9731 84.5,54.5C 83.0937,54.0269 82.427,53.0269 82.5,51.5 Z"/></g>
<g><path style="opacity:0.998" fill="#111111" d="M 33.5,84.5 C 31.7772,82.7819 29.7772,81.4486 27.5,80.5C 21.7238,69.3307 24.7238,61.4974 36.5,57C 42.1667,56.3333 47.8333,56.3333 53.5,57C 54.6406,62.7504 54.8072,68.5837 54,74.5C 50.2695,84.115 43.4362,87.4483 33.5,84.5 Z"/></g>
<g><path style="opacity:0.012" fill="#d6d6d6" d="M 58.5,68.5 C 59.5,68.8333 60.1667,69.5 60.5,70.5C 59.1667,70.5 58.5,69.8333 58.5,68.5 Z"/></g>
<g><path style="opacity:0.827" fill="#d0d0d0" d="M 62.5,72.5 C 64.153,72.6596 65.4863,73.3263 66.5,74.5C 64.6203,74.7709 63.287,74.1042 62.5,72.5 Z"/></g>
<g><path style="opacity:0.004" fill="#000000" d="M 52.5,81.5 C 53.8333,82.1667 53.8333,82.1667 52.5,81.5 Z"/></g>
<g><path style="opacity:0.933" fill="#a3a3a3" d="M 27.5,80.5 C 29.7772,81.4486 31.7772,82.7819 33.5,84.5C 30.7079,84.3775 28.7079,83.0442 27.5,80.5 Z"/></g>
</svg>
