<?xml version="1.0" encoding="UTF-8"?>
<!DOCTYPE svg PUBLIC "-//W3C//DTD SVG 1.1//EN" "http://www.w3.org/Graphics/SVG/1.1/DTD/svg11.dtd">
<svg xmlns="http://www.w3.org/2000/svg" version="1.1" width="193px" height="193px" style="shape-rendering:geometricPrecision; text-rendering:geometricPrecision; image-rendering:optimizeQuality; fill-rule:evenodd; clip-rule:evenodd" xmlns:xlink="http://www.w3.org/1999/xlink">
<g><path style="opacity:1" fill="#000000" d="M 81.5,-0.5 C 90.8333,-0.5 100.167,-0.5 109.5,-0.5C 155.5,8.83333 183.167,36.5 192.5,82.5C 192.5,91.5 192.5,100.5 192.5,109.5C 183.167,155.5 155.5,183.167 109.5,192.5C 100.5,192.5 91.5,192.5 82.5,192.5C 36.5,183.167 8.83333,155.5 -0.5,109.5C -0.5,100.167 -0.5,90.8333 -0.5,81.5C 9.16667,36.5 36.5,9.16667 81.5,-0.5 Z"/></g>
<g><path style="opacity:1" fill="#fefffe" d="M 55.5,31.5 C 82.1667,31.5 108.833,31.5 135.5,31.5C 135.5,60.1667 135.5,88.8333 135.5,117.5C 126.167,117.5 116.833,117.5 107.5,117.5C 107.5,123.5 107.5,129.5 107.5,135.5C 116.833,135.5 126.167,135.5 135.5,135.5C 135.5,141.5 135.5,147.5 135.5,153.5C 134.022,153.238 132.689,153.571 131.5,154.5C 132.833,155.833 134.167,157.167 135.5,158.5C 134.5,158.833 133.5,159.167 132.5,159.5C 129.632,158.639 127.298,156.972 125.5,154.5C 124.311,153.571 122.978,153.238 121.5,153.5C 121.5,155.5 121.5,157.5 121.5,159.5C 119.5,159.5 117.5,159.5 115.5,159.5C 115.5,157.5 115.5,155.5 115.5,153.5C 112.833,153.5 110.167,153.5 107.5,153.5C 107.5,155.5 107.5,157.5 107.5,159.5C 90.1667,159.5 72.8333,159.5 55.5,159.5C 55.5,157.5 55.5,155.5 55.5,153.5C 70.1667,153.5 84.8333,153.5 99.5,153.5C 99.5,148.833 99.5,144.167 99.5,139.5C 84.8333,139.5 70.1667,139.5 55.5,139.5C 55.5,103.5 55.5,67.5 55.5,31.5 Z"/></g>
<g><path style="opacity:1" fill="#000000" d="M 61.5,37.5 C 84.1667,37.5 106.833,37.5 129.5,37.5C 129.5,61.5 129.5,85.5 129.5,109.5C 106.833,109.5 84.1667,109.5 61.5,109.5C 61.5,85.5 61.5,61.5 61.5,37.5 Z"/></g>
<g><path style="opacity:1" fill="#000000" d="M 61.5,117.5 C 74.1667,117.5 86.8333,117.5 99.5,117.5C 99.5,122.833 99.5,128.167 99.5,133.5C 86.8333,133.5 74.1667,133.5 61.5,133.5C 61.5,128.167 61.5,122.833 61.5,117.5 Z"/></g>
<g><path style="opacity:1" fill="#000000" d="M 107.5,141.5 C 110.167,141.5 112.833,141.5 115.5,141.5C 115.5,143.5 115.5,145.5 115.5,147.5C 112.833,147.5 110.167,147.5 107.5,147.5C 107.5,145.5 107.5,143.5 107.5,141.5 Z"/></g>
<g><path style="opacity:1" fill="#000000" d="M 121.5,141.5 C 124.167,141.5 126.833,141.5 129.5,141.5C 129.5,143.5 129.5,145.5 129.5,147.5C 126.833,147.5 124.167,147.5 121.5,147.5C 121.5,145.5 121.5,143.5 121.5,141.5 Z"/></g>
</svg>
