<?xml version="1.0" encoding="UTF-8"?>
<!DOCTYPE svg PUBLIC "-//W3C//DTD SVG 1.1//EN" "http://www.w3.org/Graphics/SVG/1.1/DTD/svg11.dtd">
<svg xmlns="http://www.w3.org/2000/svg" version="1.1" width="100px" height="100px" style="shape-rendering:geometricPrecision; text-rendering:geometricPrecision; image-rendering:optimizeQuality; fill-rule:evenodd; clip-rule:evenodd" xmlns:xlink="http://www.w3.org/1999/xlink">
<g><path style="opacity:1" fill="#3e4142" d="M 12.5,7.5 C 37.1689,7.33336 61.8356,7.50003 86.5,8C 89.3807,9.2506 91.214,11.4173 92,14.5C 92.6667,38.1667 92.6667,61.8333 92,85.5C 91.6541,87.8477 90.4875,89.6811 88.5,91C 62.9205,92.6477 37.2539,92.981 11.5,92C 10.3333,90.8333 9.16667,89.6667 8,88.5C 6.35282,63.5874 6.01949,38.5874 7,13.5C 8.35968,10.9774 10.193,8.97739 12.5,7.5 Z M 35.5,67.5 C 33.8646,64.2182 31.3646,61.8848 28,60.5C 27.5,60.8333 27,61.1667 26.5,61.5C 28.5207,64.2347 30.5207,66.9014 32.5,69.5C 35.1226,71.2655 38.1226,71.9321 41.5,71.5C 41.8919,74.7216 41.3919,77.7216 40,80.5C 22.7139,72.5947 16.0472,59.2613 20,40.5C 29.5412,21.0638 44.3746,15.5638 64.5,24C 80.8545,36.2687 84.0212,51.4354 74,69.5C 70.0304,74.6438 65.0304,78.3105 59,80.5C 58.6667,80.1667 58.3333,79.8333 58,79.5C 57.7861,74.1146 57.2861,68.7813 56.5,63.5C 69.8058,60.3905 73.1391,52.8905 66.5,41C 67.5914,38.9361 67.7581,36.7695 67,34.5C 66.4806,33.4844 65.6473,32.8178 64.5,32.5C 61.4624,33.9369 58.2958,34.9369 55,35.5C 50.1974,34.9044 45.3641,34.7378 40.5,35C 37.8587,32.7909 35.0254,32.2909 32,33.5C 30.0719,40.7024 29.4053,48.0358 30,55.5C 32.897,60.0384 37.0637,62.705 42.5,63.5C 41.4783,66.987 39.145,68.3203 35.5,67.5 Z"/></g>
<g><path style="opacity:1" fill="#777979" d="M 35.5,67.5 C 33.8212,67.2852 32.8212,67.9519 32.5,69.5C 30.5207,66.9014 28.5207,64.2347 26.5,61.5C 27,61.1667 27.5,60.8333 28,60.5C 31.3646,61.8848 33.8646,64.2182 35.5,67.5 Z"/></g>
</svg>
