<?xml version="1.0" encoding="UTF-8"?>
<!DOCTYPE svg PUBLIC "-//W3C//DTD SVG 1.1//EN" "http://www.w3.org/Graphics/SVG/1.1/DTD/svg11.dtd">
<svg xmlns="http://www.w3.org/2000/svg" version="1.1" width="100px" height="100px" style="shape-rendering:geometricPrecision; text-rendering:geometricPrecision; image-rendering:optimizeQuality; fill-rule:evenodd; clip-rule:evenodd" xmlns:xlink="http://www.w3.org/1999/xlink">
<g><path style="opacity:1" fill="#b5b6b6" d="M 68.5,8.5 C 70.3379,7.32167 72.0045,7.655 73.5,9.5C 71.7839,9.37133 70.1172,9.038 68.5,8.5 Z"/></g>
<g><path style="opacity:1" fill="#3b3d3e" d="M 68.5,8.5 C 70.1172,9.038 71.7839,9.37133 73.5,9.5C 74.1667,9.5 74.8333,9.5 75.5,9.5C 77.6626,11.0828 79.9959,12.4161 82.5,13.5C 85.5961,14.6512 88.5961,14.3179 91.5,12.5C 93.0481,12.8212 93.7148,13.8212 93.5,15.5C 92.3747,17.1288 91.0414,18.6288 89.5,20C 92.4575,19.5141 95.4575,19.1808 98.5,19C 96,22.8333 92.8333,26 89,28.5C 88.2921,59.8643 72.7921,79.3643 42.5,87C 28.9423,89.2048 16.2756,87.0381 4.5,80.5C 5.5,79.8333 6.5,79.1667 7.5,78.5C 15.6583,78.2809 22.9916,75.7809 29.5,71C 26.846,70.0594 24.1794,69.2261 21.5,68.5C 20.7377,66.7376 19.4044,65.7376 17.5,65.5C 15.3438,63.1981 13.6772,60.5315 12.5,57.5C 14.7662,56.6858 17.0995,56.1858 19.5,56C 17.5087,55.6264 15.842,54.793 14.5,53.5C 14.0269,52.0937 13.0269,51.427 11.5,51.5C 8.60657,49.2515 6.9399,46.2515 6.5,42.5C 6.21552,40.5853 6.54885,38.9187 7.5,37.5C 13.1419,39.3092 13.8086,38.3092 9.5,34.5C 9.16667,33.5 8.5,32.8333 7.5,32.5C 4.83787,26.1358 4.83787,19.8025 7.5,13.5C 9.06181,13.7329 10.3951,14.3995 11.5,15.5C 13.1667,16.5 14.5,17.8333 15.5,19.5C 16.0347,21.4456 17.368,22.4456 19.5,22.5C 19.9731,23.9063 20.9731,24.573 22.5,24.5C 28.1259,27.1532 33.7926,29.4865 39.5,31.5C 42.5885,32.7846 45.9219,33.4512 49.5,33.5C 49.5,30.8333 49.5,28.1667 49.5,25.5C 51.0658,14.6046 57.3991,8.93798 68.5,8.5 Z"/></g>
<g><path style="opacity:0.137" fill="#d7d7d8" d="M 75.5,9.5 C 78.6145,9.55481 80.9478,10.8881 82.5,13.5C 79.9959,12.4161 77.6626,11.0828 75.5,9.5 Z"/></g>
<g><path style="opacity:1" fill="#7c7e7e" d="M 93.5,15.5 C 93.7148,13.8212 93.0481,12.8212 91.5,12.5C 92.7985,10.9014 94.4652,10.4014 96.5,11C 95.6006,12.6516 94.6006,14.1516 93.5,15.5 Z"/></g>
<g><path style="opacity:0.953" fill="#cecfcf" d="M 7.5,13.5 C 9.70893,12.0242 11.0423,12.6909 11.5,15.5C 10.3951,14.3995 9.06181,13.7329 7.5,13.5 Z"/></g>
<g><path style="opacity:1" fill="#9a9c9c" d="M 15.5,19.5 C 17.2303,20.0256 18.5637,21.0256 19.5,22.5C 17.368,22.4456 16.0347,21.4456 15.5,19.5 Z"/></g>
<g><path style="opacity:0.22" fill="#d2d2d2" d="M 19.5,22.5 C 21.0269,22.427 22.0269,23.0937 22.5,24.5C 20.9731,24.573 19.9731,23.9063 19.5,22.5 Z"/></g>
<g><path style="opacity:0.988" fill="#adafaf" d="M 49.5,25.5 C 49.5,28.1667 49.5,30.8333 49.5,33.5C 45.9219,33.4512 42.5885,32.7846 39.5,31.5C 42.2518,31.578 44.9184,31.7446 47.5,32C 48.1172,29.723 48.7839,27.5563 49.5,25.5 Z"/></g>
<g><path style="opacity:0.129" fill="#d5d5d5" d="M 7.5,32.5 C 8.5,32.8333 9.16667,33.5 9.5,34.5C 8.16667,34.5 7.5,33.8333 7.5,32.5 Z"/></g>
<g><path style="opacity:0.439" fill="#7d7f80" d="M 7.5,37.5 C 6.54885,38.9187 6.21552,40.5853 6.5,42.5C 5.20719,40.6365 5.20719,38.6365 6.5,36.5C 7.10667,36.6236 7.44001,36.9569 7.5,37.5 Z"/></g>
<g><path style="opacity:0.957" fill="#acadae" d="M 11.5,51.5 C 13.0269,51.427 14.0269,52.0937 14.5,53.5C 12.9731,53.573 11.9731,52.9063 11.5,51.5 Z"/></g>
<g><path style="opacity:0.996" fill="#cbcccc" d="M 17.5,65.5 C 19.4044,65.7376 20.7377,66.7376 21.5,68.5C 19.5956,68.2624 18.2623,67.2624 17.5,65.5 Z"/></g>
<g><path style="opacity:1" fill="#797b7b" d="M 7.5,78.5 C 6.5,79.1667 5.5,79.8333 4.5,80.5C 3.62356,80.6309 2.95689,80.2975 2.5,79.5C 4.04533,78.5481 5.71199,78.2148 7.5,78.5 Z"/></g>
</svg>
